<svg width="2002" height="2006" viewBox="0 0 2002 2006" fill="none" xmlns="http://www.w3.org/2000/svg">
<g filter="url(#filter0_d_7_9)">
<path d="M669.745 5.44531C672.315 8.64142 675.796 14.3584 677.421 18.0459C679.132 21.9258 682.564 29.1373 685.055 34.0908C701.281 66.3535 723.648 111.18 727.563 119.284L729.163 122.558C730.745 125.747 732.18 128.515 732.702 129.338C733.256 130.212 735.455 134.535 737.604 139.015C739.741 143.473 750.766 165.693 762.094 188.38C773.427 211.077 783.899 232.064 785.365 235.021L796.101 256.594C810.803 286.092 835.787 336.136 856.546 377.657C889.14 442.849 905.287 475.241 957.61 580.386C974.057 613.436 989.578 644.532 992.097 649.477C994.608 654.405 1008.73 682.547 1023.47 712.022C1030.85 726.767 1037.72 740.203 1042.85 749.972C1045.41 754.854 1047.54 758.831 1049.08 761.601C1049.85 762.982 1050.48 764.082 1050.95 764.849C1051.19 765.227 1051.4 765.555 1051.58 765.802C1051.67 765.921 1051.77 766.061 1051.89 766.186C1051.95 766.247 1052.04 766.337 1052.15 766.424C1052.12 766.694 969.404 928.392 957.439 952.367L955.256 953.75C938.489 964.375 907.631 985.929 894.006 996.535C890.378 999.359 888.173 1000.88 886.785 1001.5C886.16 1001.77 885.868 1001.78 885.775 1001.78C885.763 1001.76 885.745 1001.74 885.726 1001.7C885.399 1001.11 885.098 1000.44 884.881 999.866C884.773 999.579 884.695 999.334 884.645 999.147C884.609 999.012 884.599 998.947 884.597 998.938C884.585 998.652 884.516 998.418 884.499 998.361L884.498 998.355C884.467 998.248 884.43 998.144 884.397 998.055C884.329 997.872 884.238 997.651 884.135 997.411C883.927 996.926 883.629 996.269 883.256 995.472C882.508 993.871 881.432 991.643 880.111 988.956C877.468 983.58 873.828 976.332 869.829 968.51C861.837 952.88 846.214 922.329 835.112 900.62C824.01 878.913 803.215 838.143 788.9 810.021C774.584 781.898 755.009 743.547 745.399 724.797C735.791 706.05 716.208 667.703 701.881 639.582C622.061 482.913 606.649 452.695 581.089 402.759C569.536 380.186 557.144 355.924 549.458 340.836L543.547 329.208C538.299 318.845 508.303 259.906 476.888 198.235C445.473 136.563 411.357 69.5531 401.074 49.3252C390.792 29.1021 380.973 9.8393 379.255 6.52148C378.614 5.28329 378.148 4.3204 377.828 3.55176C377.502 2.7681 377.375 2.29193 377.339 2.00586C377.323 1.87736 377.33 1.8161 377.331 1.80469C377.343 1.78299 377.399 1.69171 377.595 1.52637C377.706 1.51046 377.859 1.48912 378.059 1.46973C378.584 1.41883 379.351 1.36721 380.358 1.31543C382.367 1.21206 385.274 1.11225 388.99 1.0166C396.419 0.82537 407.054 0.651038 420.162 0.505859C446.378 0.215524 482.474 0.0344417 522.59 0.0263672L665.363 0L669.745 5.44531Z" fill="#12B85D"/>
</g>
<g filter="url(#filter1_d_7_9)">
<mask id="path-2-inside-1_7_9" fill="white">
<path d="M953.489 955.503C954.197 955.055 954.902 954.609 955.603 954.165L957.039 953.231L958.149 952.553C1028.78 907.805 1067.04 883.745 1089.33 870.054C1303.33 738.619 1364.12 697.461 1433.45 637.141C1582.48 507.461 1671.42 347.584 1688.92 178.426C1689.11 176.612 1689.29 174.845 1689.48 173.141C1690.04 168.031 1690.59 163.493 1691.05 160.003C1691.21 158.842 1691.36 157.79 1691.49 156.868C1691.63 155.947 1691.76 155.155 1691.87 154.512C1691.99 153.882 1692.1 153.338 1692.2 152.947C1692.25 152.782 1692.33 152.502 1692.46 152.247L1692.46 152.244C1692.51 152.156 1692.69 151.788 1693.08 151.539C1693.31 151.386 1693.67 151.25 1694.09 151.323C1694.5 151.395 1694.8 151.636 1694.98 151.84C1695.28 152.196 1695.42 152.64 1695.47 152.791C1695.54 153.028 1695.61 153.297 1695.66 153.568C1695.78 154.116 1695.89 154.833 1696.01 155.679C1696.24 157.381 1696.49 159.739 1696.75 162.603C1697.27 168.339 1697.86 176.198 1698.43 185.101C1699.58 202.91 1700.68 224.962 1701.2 242.71C1703.27 313.847 1694.11 371.005 1668.98 444.036C1623.58 575.952 1542.94 688.339 1414.75 798.632C1354.93 850.093 1291.29 895.553 1178.54 967.374C1060.44 1042.61 1006.51 1078.78 961.256 1113.1C910.648 1151.49 898.179 1162.68 873.72 1191.56C832.062 1240.75 798.11 1292.58 766 1356.1L762.897 1362.28C762.502 1363.08 762.096 1363.9 761.681 1364.75C760.85 1366.45 759.981 1368.25 759.08 1370.14C757.73 1372.98 756.31 1376.01 754.851 1379.17C751.933 1385.5 748.854 1392.34 745.845 1399.16C743.839 1403.7 741.864 1408.24 739.987 1412.62C739.049 1414.8 738.136 1416.95 737.256 1419.03C735.497 1423.19 733.872 1427.1 732.448 1430.61C731.736 1432.37 731.075 1434.02 730.472 1435.55C729.567 1437.85 728.797 1439.87 728.191 1441.54C727.989 1442.1 727.806 1442.61 727.641 1443.09C727.31 1444.05 727.064 1444.82 726.902 1445.4C726.813 1445.72 726.765 1445.93 726.739 1446.06C726.811 1446.27 726.927 1446.57 727.092 1446.97C727.429 1447.78 727.933 1448.94 728.593 1450.39C729.912 1453.29 731.826 1457.35 734.193 1462.27C738.926 1472.1 745.457 1485.35 752.643 1499.62C779.645 1553.25 839.401 1672.01 896.136 1784.79L931.436 1854.94C962.247 1916.14 980.201 1951.67 990.789 1972.13C997.861 1985.79 1001.61 1992.66 1003.7 1995.97C1004.18 1996.73 1004.56 1997.27 1004.85 1997.66C1005.04 1997.3 1005.29 1996.85 1005.58 1996.3C1006.34 1994.87 1007.4 1992.82 1008.73 1990.23C1011.39 1985.04 1015.11 1977.69 1019.64 1968.7C1028.69 1950.73 1040.92 1926.26 1054.15 1899.62C1074 1859.66 1106.85 1793.58 1136.45 1734.11L1164.35 1678.05C1181.43 1643.76 1201.32 1603.81 1219.61 1567.06L1265.27 1475.32C1286.63 1432.39 1351.12 1302.81 1408.6 1187.36C1466.07 1071.91 1526.14 951.216 1542.08 919.147C1558.03 887.077 1581.94 839.039 1595.21 812.396C1601.84 799.075 1616.31 770.011 1634.27 733.917L1694.31 613.254C1714.93 571.81 1738.95 523.538 1761.04 479.15L1816.19 368.358C1829.09 342.456 1847.59 305.284 1867.01 266.263L1923.34 153.068C1956.47 86.4686 1986.98 25.2793 1991.13 17.0973C1993.19 13.0211 1995.07 9.22294 1996.43 6.39232C1996.86 5.48058 1997.24 4.67182 1997.56 3.99026C1996.69 3.97185 1995.59 3.95154 1994.27 3.9342C1990.53 3.88526 1985.01 3.84196 1977.91 3.80279C1963.7 3.72446 1943.15 3.66511 1917.78 3.62934C1867.06 3.5578 1797.09 3.57649 1720.13 3.70118L1441.13 4.1532L1283.61 313.649C1196.72 484.356 1108.98 656.724 1088.65 696.688C1078.48 716.676 1069.07 734.826 1062.1 747.965C1061.66 748.805 1061.5 748.803 1061.08 749.601L1060.3 751.395L1049.23 769.962C1049.08 769.995 966.204 931.117 953.489 955.503Z"/>
</mask>
<path d="M953.489 955.503C954.197 955.055 954.902 954.609 955.603 954.165L957.039 953.231L958.149 952.553C1028.78 907.805 1067.04 883.745 1089.33 870.054C1303.33 738.619 1364.12 697.461 1433.45 637.141C1582.48 507.461 1671.42 347.584 1688.92 178.426C1689.11 176.612 1689.29 174.845 1689.48 173.141C1690.04 168.031 1690.59 163.493 1691.05 160.003C1691.21 158.842 1691.36 157.79 1691.49 156.868C1691.63 155.947 1691.76 155.155 1691.87 154.512C1691.99 153.882 1692.1 153.338 1692.2 152.947C1692.25 152.782 1692.33 152.502 1692.46 152.247L1692.46 152.244C1692.51 152.156 1692.69 151.788 1693.08 151.539C1693.31 151.386 1693.67 151.25 1694.09 151.323C1694.5 151.395 1694.8 151.636 1694.98 151.84C1695.28 152.196 1695.42 152.64 1695.47 152.791C1695.54 153.028 1695.61 153.297 1695.66 153.568C1695.78 154.116 1695.89 154.833 1696.01 155.679C1696.24 157.381 1696.49 159.739 1696.75 162.603C1697.27 168.339 1697.86 176.198 1698.43 185.101C1699.58 202.91 1700.68 224.962 1701.2 242.71C1703.27 313.847 1694.11 371.005 1668.98 444.036C1623.58 575.952 1542.94 688.339 1414.75 798.632C1354.93 850.093 1291.29 895.553 1178.54 967.374C1060.44 1042.61 1006.51 1078.78 961.256 1113.1C910.648 1151.49 898.179 1162.68 873.72 1191.56C832.062 1240.75 798.11 1292.58 766 1356.1L762.897 1362.28C762.502 1363.08 762.096 1363.9 761.681 1364.75C760.85 1366.45 759.981 1368.25 759.08 1370.14C757.73 1372.98 756.31 1376.01 754.851 1379.17C751.933 1385.5 748.854 1392.34 745.845 1399.16C743.839 1403.7 741.864 1408.24 739.987 1412.62C739.049 1414.8 738.136 1416.95 737.256 1419.03C735.497 1423.19 733.872 1427.1 732.448 1430.61C731.736 1432.37 731.075 1434.02 730.472 1435.55C729.567 1437.85 728.797 1439.87 728.191 1441.54C727.989 1442.1 727.806 1442.61 727.641 1443.09C727.31 1444.05 727.064 1444.82 726.902 1445.4C726.813 1445.72 726.765 1445.93 726.739 1446.06C726.811 1446.27 726.927 1446.57 727.092 1446.97C727.429 1447.78 727.933 1448.94 728.593 1450.39C729.912 1453.29 731.826 1457.35 734.193 1462.27C738.926 1472.1 745.457 1485.35 752.643 1499.62C779.645 1553.25 839.401 1672.01 896.136 1784.79L931.436 1854.94C962.247 1916.14 980.201 1951.67 990.789 1972.13C997.861 1985.79 1001.61 1992.66 1003.7 1995.97C1004.18 1996.73 1004.56 1997.27 1004.85 1997.66C1005.04 1997.3 1005.29 1996.85 1005.58 1996.3C1006.34 1994.87 1007.4 1992.82 1008.73 1990.23C1011.39 1985.04 1015.11 1977.69 1019.64 1968.7C1028.69 1950.73 1040.92 1926.26 1054.15 1899.62C1074 1859.66 1106.85 1793.58 1136.45 1734.11L1164.35 1678.05C1181.43 1643.76 1201.32 1603.81 1219.61 1567.06L1265.27 1475.32C1286.63 1432.39 1351.12 1302.81 1408.6 1187.36C1466.07 1071.91 1526.14 951.216 1542.08 919.147C1558.03 887.077 1581.94 839.039 1595.21 812.396C1601.84 799.075 1616.31 770.011 1634.27 733.917L1694.31 613.254C1714.93 571.81 1738.95 523.538 1761.04 479.15L1816.19 368.358C1829.09 342.456 1847.59 305.284 1867.01 266.263L1923.34 153.068C1956.47 86.4686 1986.98 25.2793 1991.13 17.0973C1993.19 13.0211 1995.07 9.22294 1996.43 6.39232C1996.86 5.48058 1997.24 4.67182 1997.56 3.99026C1996.69 3.97185 1995.59 3.95154 1994.27 3.9342C1990.53 3.88526 1985.01 3.84196 1977.91 3.80279C1963.7 3.72446 1943.15 3.66511 1917.78 3.62934C1867.06 3.5578 1797.09 3.57649 1720.13 3.70118L1441.13 4.1532L1283.61 313.649C1196.72 484.356 1108.98 656.724 1088.65 696.688C1078.48 716.676 1069.07 734.826 1062.1 747.965C1061.66 748.805 1061.5 748.803 1061.08 749.601L1060.3 751.395L1049.23 769.962C1049.08 769.995 966.204 931.117 953.489 955.503Z" fill="#084281"/>
<path d="M1048.91 768.206L1048.98 767.711L1047.09 767.447L1048.61 768.604L1048.91 768.206ZM1868.36 267.158L1868.81 267.381V267.381L1868.36 267.158ZM1817.53 369.253L1817.09 369.03L1817.09 369.03L1817.53 369.253ZM1762.38 480.044L1761.94 479.821V479.821L1762.38 480.044ZM1695.66 614.147L1696.1 614.37V614.37L1695.66 614.147ZM1635.62 734.811L1636.06 735.033V735.033L1635.62 734.811ZM1596.55 813.292L1597 813.515V813.515L1596.55 813.292ZM1543.43 920.04L1542.98 919.818V919.818L1543.43 920.04ZM1409.94 1188.26L1409.49 1188.03V1188.03L1409.94 1188.26ZM1324.74 1359.43L1324.29 1359.21V1359.21L1324.74 1359.43ZM1266.62 1476.21L1267.07 1476.43L1267.07 1476.43L1266.62 1476.21ZM1220.96 1567.96L1221.41 1568.18V1568.18L1220.96 1567.96ZM1165.7 1678.94L1165.25 1678.72H1165.25L1165.7 1678.94ZM1137.79 1735L1137.35 1734.78L1137.35 1734.78L1137.79 1735ZM1055.5 1900.51L1055.95 1900.74L1055.95 1900.74L1055.5 1900.51ZM1045.8 1920.02L1046.25 1920.24L1046.25 1920.24L1045.8 1920.02ZM1005.55 1999.67L1005.92 2000.02L1005.93 2000L1005.94 1999.99L1005.55 1999.67ZM1005.37 1999.86L1005.7 2000.24L1005.72 2000.23L1005.73 2000.21L1005.37 1999.86ZM930.092 1855.84L929.646 1856.07L929.646 1856.07L930.092 1855.84ZM894.794 1785.69L894.347 1785.92L894.347 1785.92L894.794 1785.69ZM811.898 1620.93L812.345 1620.7L812.345 1620.7L811.898 1620.93ZM751.301 1500.52L751.748 1500.3H751.748L751.301 1500.52ZM725.189 1446.39L724.696 1446.47L724.7 1446.49L724.705 1446.51L725.189 1446.39ZM725.155 1446.2H724.655V1446.24L724.663 1446.28L725.155 1446.2ZM725.425 1444.85L725.907 1444.99H725.907L725.425 1444.85ZM725.751 1443.77L726.228 1443.92L726.228 1443.92L725.751 1443.77ZM729.059 1434.81L728.593 1434.63H728.593L729.059 1434.81ZM733.326 1424.29L732.864 1424.1H732.864L733.326 1424.29ZM744.461 1398.35L744.003 1398.14H744.003L744.461 1398.35ZM747.489 1391.53L747.945 1391.73H747.945L747.489 1391.53ZM761.551 1361.39L761.998 1361.61H761.998L761.551 1361.39ZM868.593 1195.08L868.21 1194.76L868.209 1194.76L868.593 1195.08ZM872.61 1190.3L872.229 1189.98L872.227 1189.98L872.61 1190.3ZM951.342 1118.5L951.039 1118.1L951.038 1118.1L951.342 1118.5ZM960.404 1111.6L960.102 1111.2L960.101 1111.2L960.404 1111.6ZM1156.39 979.459L1156.12 979.038L1156.12 979.038L1156.39 979.459ZM1177.8 965.802L1177.53 965.38L1177.53 965.38L1177.8 965.802ZM1408.21 801.994L1408.53 802.375L1408.53 802.374L1408.21 801.994ZM1413.82 797.194L1414.14 797.574L1414.15 797.573L1413.82 797.194ZM1666.47 446.452L1666.94 446.617V446.617L1666.47 446.452ZM1667.54 443.373L1668.01 443.536V443.536L1667.54 443.373ZM1699.74 246.081L1700.24 246.069V246.068L1699.74 246.081ZM1699.65 242.77L1700.15 242.756L1700.15 242.755L1699.65 242.77ZM1693.94 153.221L1694.4 153.016L1694.39 152.99L1694.37 152.966L1693.94 153.221ZM1693.88 153.11L1694.31 152.856L1694.29 152.817L1694.26 152.783L1693.88 153.11ZM1692.1 164.08L1692.6 164.141V164.141L1692.1 164.08ZM1691.57 168.478L1692.07 168.535V168.535L1691.57 168.478ZM1690.46 178.638L1690.96 178.691L1690.96 178.689L1690.46 178.638ZM1690.03 182.615L1690.53 182.67L1690.53 182.668L1690.03 182.615ZM1440.25 2.36086L1440.25 1.86086L1439.94 1.86136L1439.8 2.13406L1440.25 2.36086ZM1720.12 1.90708L1720.12 1.40708V1.40708L1720.12 1.90708ZM1080.6 877.48L1080.34 877.054L1080.34 877.055L1080.6 877.48ZM953.157 957.716L953.075 958.21H953.076L953.157 957.716ZM2000 2.30129L2000.49 2.41888L2000.51 2.33057L2000.5 2.24038L2000 2.30129ZM1999.96 2.46423L2000.44 2.61912L2000.44 2.60068L2000.45 2.58182L1999.96 2.46423ZM1087.31 695.778L1086.86 695.552V695.552L1087.31 695.778ZM1090.06 871.64L1089.8 871.214L1089.8 871.215L1090.06 871.64ZM1431.13 641.391L1430.8 641.013V641.013L1431.13 641.391ZM1434.38 638.574L1434.71 638.951V638.951L1434.38 638.574ZM953.489 955.503L953.932 955.735L954.792 954.086L953.221 955.081L953.489 955.503ZM953.303 955.621L952.855 955.397V955.397L953.303 955.621ZM1992.47 18.0031L1992.91 18.2293V18.2292L1992.47 18.0031ZM1924.69 153.962L1925.13 154.185L1925.13 154.185L1924.69 153.962ZM1019.59 825.449L1020.03 825.677V825.677L1019.59 825.449ZM1868.36 267.158L1867.91 266.935C1848.49 305.956 1829.99 343.128 1817.09 369.03L1817.53 369.253L1817.98 369.476C1830.88 343.574 1849.38 306.402 1868.81 267.381L1868.36 267.158ZM1762.38 480.044L1761.94 479.821C1739.84 524.208 1715.82 572.481 1695.21 613.924L1695.66 614.147L1696.1 614.37C1716.72 572.926 1740.74 524.654 1762.83 480.267L1762.38 480.044ZM1695.66 614.147L1695.21 613.924L1635.17 734.588L1635.62 734.811L1636.06 735.033L1696.1 614.37L1695.66 614.147ZM1635.62 734.811L1635.17 734.588C1617.21 770.683 1602.74 799.748 1596.1 813.069L1596.55 813.292L1597 813.515C1603.64 800.193 1618.1 771.128 1636.06 735.033L1635.62 734.811ZM1596.55 813.292L1596.1 813.069C1582.83 839.711 1558.93 887.748 1542.98 919.818L1543.43 920.04L1543.88 920.263C1559.82 888.194 1583.73 840.157 1597 813.515L1596.55 813.292ZM1543.43 920.04L1542.98 919.818C1527.04 951.887 1466.97 1072.58 1409.49 1188.03L1409.94 1188.26L1410.39 1188.48C1467.86 1073.03 1527.93 952.333 1543.88 920.263L1543.43 920.04ZM1409.94 1188.26L1409.49 1188.03L1324.29 1359.21L1324.74 1359.43L1325.18 1359.65L1410.39 1188.48L1409.94 1188.26ZM1324.74 1359.43L1324.29 1359.21C1298.31 1411.4 1276.85 1454.52 1266.17 1475.99L1266.62 1476.21L1267.07 1476.43C1277.74 1454.97 1299.21 1411.84 1325.18 1359.65L1324.74 1359.43ZM1266.62 1476.21L1266.17 1475.99L1220.51 1567.73L1220.96 1567.96L1221.41 1568.18L1267.07 1476.43L1266.62 1476.21ZM1220.96 1567.96L1220.51 1567.73C1202.22 1604.48 1182.33 1644.43 1165.25 1678.72L1165.7 1678.94L1166.15 1679.17C1183.22 1644.88 1203.11 1604.92 1221.41 1568.18L1220.96 1567.96ZM1165.7 1678.94L1165.25 1678.72L1137.35 1734.78L1137.79 1735L1138.24 1735.22L1166.15 1679.17L1165.7 1678.94ZM1137.79 1735L1137.35 1734.78C1107.75 1794.25 1074.9 1860.33 1055.05 1900.29L1055.5 1900.51L1055.95 1900.74C1075.79 1860.77 1108.65 1794.7 1138.24 1735.22L1137.79 1735ZM1055.5 1900.51L1055.05 1900.29L1045.35 1919.8L1045.8 1920.02L1046.25 1920.24L1055.95 1900.74L1055.5 1900.51ZM1045.8 1920.02L1045.35 1919.8C1034.33 1941.92 1024.49 1961.56 1017.3 1975.8C1013.7 1982.92 1010.76 1988.7 1008.67 1992.76C1007.62 1994.79 1006.79 1996.39 1006.19 1997.51C1005.89 1998.08 1005.65 1998.52 1005.47 1998.84C1005.38 1999 1005.31 1999.12 1005.25 1999.22C1005.23 1999.26 1005.2 1999.3 1005.19 1999.32C1005.17 1999.35 1005.16 1999.36 1005.16 1999.36L1005.55 1999.67L1005.94 1999.99C1006.03 1999.88 1006.17 1999.64 1006.34 1999.33C1006.53 1999 1006.77 1998.55 1007.07 1997.98C1007.68 1996.85 1008.51 1995.25 1009.56 1993.21C1011.65 1989.15 1014.59 1983.38 1018.19 1976.25C1025.39 1962.01 1035.23 1942.37 1046.25 1920.24L1045.8 1920.02ZM1005.55 1999.67L1005.19 1999.33L1005.01 1999.52L1005.37 1999.86L1005.73 2000.21L1005.92 2000.02L1005.55 1999.67ZM1005.37 1999.86L1005.05 1999.48C1005.01 1999.52 1005.02 1999.5 1005.05 1999.5C1005.05 1999.5 1004.98 1999.5 1004.81 1999.36C1004.47 1999.07 1003.93 1998.41 1003.07 1997.07C1001.36 1994.42 998.513 1989.3 993.541 1979.81C983.602 1960.84 965.207 1924.48 930.539 1855.62L930.092 1855.84L929.646 1856.07C964.312 1924.93 982.711 1961.3 992.655 1980.27C997.624 1989.76 1000.49 1994.91 1002.23 1997.61C1003.08 1998.95 1003.7 1999.73 1004.18 2000.13C1004.42 2000.33 1004.68 2000.47 1004.97 2000.5C1005.28 2000.52 1005.53 2000.39 1005.7 2000.24L1005.37 1999.86ZM930.092 1855.84L930.539 1855.62L895.24 1785.47L894.794 1785.69L894.347 1785.92L929.646 1856.07L930.092 1855.84ZM894.794 1785.69L895.24 1785.47C866.873 1729.08 837.751 1671.19 812.345 1620.7L811.898 1620.93L811.451 1621.15C836.857 1671.64 865.98 1729.53 894.347 1785.92L894.794 1785.69ZM811.898 1620.93L812.345 1620.7L751.748 1500.3L751.301 1500.52L750.855 1500.75L811.451 1621.15L811.898 1620.93ZM751.301 1500.52L751.748 1500.3C744.783 1486.46 738.432 1473.59 733.734 1463.86C731.386 1458.98 729.451 1454.9 728.061 1451.86C727.365 1450.35 726.807 1449.1 726.401 1448.14C725.99 1447.18 725.749 1446.55 725.672 1446.26L725.189 1446.39L724.705 1446.51C724.804 1446.89 725.076 1447.58 725.481 1448.54C725.892 1449.5 726.454 1450.76 727.152 1452.28C728.546 1455.32 730.484 1459.42 732.834 1464.29C737.534 1474.04 743.888 1486.91 750.855 1500.75L751.301 1500.52ZM725.189 1446.39L725.681 1446.3L725.648 1446.11L725.155 1446.2L724.663 1446.28L724.696 1446.47L725.189 1446.39ZM725.155 1446.2H725.655C725.655 1446.02 725.728 1445.63 725.907 1444.99L725.425 1444.85L724.944 1444.72C724.769 1445.35 724.655 1445.86 724.655 1446.2H725.155ZM725.425 1444.85L725.907 1444.99C725.993 1444.68 726.1 1444.32 726.228 1443.92L725.751 1443.77L725.275 1443.62C725.144 1444.03 725.034 1444.4 724.944 1444.72L725.425 1444.85ZM725.751 1443.77L726.228 1443.92C726.869 1441.91 728.011 1438.84 729.524 1434.99L729.059 1434.81L728.593 1434.63C727.08 1438.47 725.927 1441.57 725.275 1443.62L725.751 1443.77ZM729.059 1434.81L729.524 1434.99C730.733 1431.92 732.176 1428.36 733.788 1424.48L733.326 1424.29L732.864 1424.1C731.251 1427.99 729.805 1431.55 728.593 1434.63L729.059 1434.81ZM733.326 1424.29L733.788 1424.48C737.01 1416.72 740.902 1407.65 744.918 1398.55L744.461 1398.35L744.003 1398.14C739.985 1407.25 736.09 1416.33 732.864 1424.1L733.326 1424.29ZM744.461 1398.35L744.918 1398.55C745.922 1396.27 746.934 1393.99 747.945 1391.73L747.489 1391.53L747.033 1391.32C746.021 1393.59 745.008 1395.87 744.003 1398.14L744.461 1398.35ZM747.489 1391.53L747.945 1391.73C753.002 1380.43 758.039 1369.56 761.998 1361.61L761.551 1361.39L761.103 1361.16C757.134 1369.14 752.091 1380.01 747.033 1391.32L747.489 1391.53ZM761.551 1361.39L761.998 1361.61C794.039 1297.25 827.744 1244.86 868.977 1195.4L868.593 1195.08L868.209 1194.76C826.92 1244.28 793.174 1296.74 761.103 1361.16L761.551 1361.39ZM868.593 1195.08L868.976 1195.4L872.993 1190.62L872.61 1190.3L872.227 1189.98L868.21 1194.76L868.593 1195.08ZM872.61 1190.3L872.992 1190.63C895.998 1163.46 908.462 1151.87 951.645 1118.89L951.342 1118.5L951.038 1118.1C907.82 1151.11 895.297 1162.74 872.229 1189.98L872.61 1190.3ZM951.342 1118.5L951.645 1118.89L960.707 1112L960.404 1111.6L960.101 1111.2L951.039 1118.1L951.342 1118.5ZM960.404 1111.6L960.706 1112C1003.17 1079.8 1053.25 1045.97 1156.66 979.88L1156.39 979.459L1156.12 979.038C1052.71 1045.13 1002.6 1078.97 960.102 1111.2L960.404 1111.6ZM1156.39 979.459L1156.66 979.881L1178.06 966.223L1177.8 965.802L1177.53 965.38L1156.12 979.038L1156.39 979.459ZM1177.8 965.802L1178.06 966.224C1287.27 896.658 1350.36 851.85 1408.53 802.375L1408.21 801.994L1407.88 801.614C1349.77 851.045 1286.72 895.824 1177.53 965.38L1177.8 965.802ZM1408.21 801.994L1408.53 802.374L1414.14 797.574L1413.82 797.194L1413.49 796.814L1407.88 801.614L1408.21 801.994ZM1413.82 797.194L1414.15 797.573C1541.23 688.235 1621.45 576.915 1666.94 446.617L1666.47 446.452L1666 446.287C1620.57 576.387 1540.48 687.567 1413.49 796.815L1413.82 797.194ZM1666.47 446.452L1666.94 446.617C1667.3 445.591 1667.65 444.564 1668.01 443.536L1667.54 443.373L1667.06 443.211C1666.71 444.237 1666.35 445.263 1666 446.287L1666.47 446.452ZM1667.54 443.373L1668.01 443.536C1692.7 371.797 1701.92 315.469 1700.24 246.069L1699.74 246.081L1699.24 246.093C1700.92 315.364 1691.72 371.574 1667.06 443.211L1667.54 443.373ZM1699.74 246.081L1700.24 246.068L1700.15 242.756L1699.65 242.77L1699.15 242.783L1699.24 246.094L1699.74 246.081ZM1699.65 242.77L1700.15 242.755C1699.64 225.308 1698.56 203.689 1697.44 186.045C1696.87 177.222 1696.3 169.391 1695.78 163.57C1695.52 160.66 1695.27 158.248 1695.04 156.464C1694.93 155.573 1694.82 154.833 1694.72 154.264C1694.62 153.715 1694.51 153.273 1694.4 153.016L1693.94 153.221L1693.49 153.425C1693.55 153.555 1693.63 153.88 1693.73 154.443C1693.83 154.987 1693.94 155.707 1694.05 156.59C1694.27 158.356 1694.52 160.754 1694.78 163.659C1695.3 169.468 1695.87 177.29 1696.44 186.108C1697.56 203.744 1698.64 225.351 1699.15 242.784L1699.65 242.77ZM1693.94 153.221L1694.37 152.966L1694.31 152.856L1693.88 153.11L1693.45 153.365L1693.51 153.475L1693.94 153.221ZM1693.88 153.11L1694.26 152.783C1694.19 152.703 1694.04 152.588 1693.83 152.599C1693.64 152.608 1693.52 152.712 1693.47 152.761C1693.38 152.856 1693.33 152.975 1693.3 153.033C1693.25 153.179 1693.19 153.387 1693.13 153.629C1693.02 154.126 1692.88 154.877 1692.72 155.839C1692.41 157.767 1692.03 160.585 1691.6 164.018L1692.1 164.08L1692.6 164.141C1693.02 160.712 1693.4 157.908 1693.71 155.998C1693.87 155.04 1694 154.318 1694.11 153.856C1694.16 153.619 1694.2 153.477 1694.23 153.409C1694.25 153.36 1694.24 153.406 1694.18 153.464C1694.15 153.495 1694.05 153.589 1693.88 153.597C1693.68 153.607 1693.55 153.5 1693.5 153.437L1693.88 153.11ZM1692.1 164.08L1691.6 164.018C1691.43 165.392 1691.26 166.866 1691.08 168.42L1691.57 168.478L1692.07 168.535C1692.25 166.983 1692.43 165.512 1692.6 164.141L1692.1 164.08ZM1691.57 168.478L1691.08 168.42C1690.72 171.529 1690.34 174.964 1689.96 178.586L1690.46 178.638L1690.96 178.689C1691.33 175.071 1691.71 171.64 1692.07 168.535L1691.57 168.478ZM1690.46 178.638L1689.96 178.584L1689.54 182.562L1690.03 182.615L1690.53 182.668L1690.96 178.691L1690.46 178.638ZM1440.25 2.36086L1440.25 2.86086L1720.12 2.40708L1720.12 1.90708L1720.12 1.40708L1440.25 1.86086L1440.25 2.36086ZM1080.6 877.48L1080.34 877.055C1056.23 891.996 1018.65 915.626 952.889 957.294L953.157 957.716L953.424 958.139C1019.18 916.471 1056.76 892.843 1080.86 877.905L1080.6 877.48ZM2000 2.30129L1999.51 2.1837L1999.47 2.34664L1999.96 2.46423L2000.45 2.58182L2000.49 2.41888L2000 2.30129ZM1048.91 768.206L1048.84 768.701C1049.06 768.731 1049.21 768.623 1049.25 768.598C1049.31 768.556 1049.36 768.506 1049.4 768.466C1049.48 768.382 1049.56 768.27 1049.66 768.143C1049.84 767.885 1050.09 767.508 1050.38 767.026C1050.97 766.059 1051.8 764.632 1052.82 762.798C1054.87 759.13 1057.74 753.814 1061.22 747.25C1068.19 734.12 1077.59 715.983 1087.75 696.005L1087.31 695.778L1086.86 695.552C1076.7 715.526 1067.3 733.658 1060.34 746.781C1056.86 753.344 1054 758.651 1051.95 762.31C1050.93 764.14 1050.11 765.553 1049.53 766.503C1049.24 766.979 1049.01 767.33 1048.84 767.557C1048.76 767.673 1048.7 767.742 1048.67 767.778C1048.65 767.797 1048.66 767.791 1048.68 767.777C1048.69 767.77 1048.71 767.751 1048.76 767.736C1048.8 767.72 1048.88 767.697 1048.98 767.711L1048.91 768.206ZM1720.12 1.90708L1720.12 2.40708C1797.07 2.28242 1867.03 2.26442 1917.75 2.33585C1943.11 2.37157 1963.67 2.42965 1977.88 2.50794C1984.99 2.54708 1990.52 2.59127 1994.26 2.64022C1996.14 2.66471 1997.57 2.69036 1998.52 2.7171C1999 2.73049 1999.36 2.74405 1999.6 2.75762C1999.72 2.76449 1999.8 2.77092 1999.85 2.77636C1999.87 2.77938 1999.88 2.78051 1999.86 2.77782C1999.86 2.77724 1999.83 2.77049 1999.79 2.75239C1999.77 2.74147 1999.71 2.70565 1999.67 2.67992C1999.62 2.63 1999.53 2.47161 1999.5 2.3622L2000 2.30129L2000.5 2.24038C2000.47 2.12915 2000.37 1.96894 2000.32 1.9172C2000.29 1.88965 2000.22 1.85202 2000.2 1.83929C2000.15 1.81757 2000.11 1.8072 2000.09 1.80301C2000.04 1.79311 2000 1.78705 1999.96 1.78294C1999.89 1.77409 1999.78 1.76638 1999.66 1.75925C1999.41 1.74482 1999.03 1.73094 1998.55 1.71749C1997.59 1.69053 1996.15 1.66481 1994.28 1.64031C1990.53 1.5913 1985 1.5471 1977.89 1.50795C1963.67 1.42966 1943.12 1.37158 1917.75 1.33586C1867.03 1.26441 1797.07 1.28242 1720.12 1.40708L1720.12 1.90708ZM1087.31 695.778L1087.75 696.005L1440.69 2.58766L1440.25 2.36086L1439.8 2.13406L1086.86 695.552L1087.31 695.778ZM1090.06 871.64L1089.8 871.215L1080.34 877.054L1080.6 877.48L1080.86 877.905L1090.32 872.066L1090.06 871.64ZM1431.13 641.391L1430.8 641.013C1362.71 699.892 1300.45 741.837 1089.8 871.214L1090.06 871.64L1090.32 872.066C1300.96 742.694 1363.3 700.71 1431.46 641.77L1431.13 641.391ZM1434.38 638.574L1434.05 638.197C1432.97 639.14 1431.89 640.078 1430.8 641.013L1431.13 641.391L1431.46 641.77C1432.54 640.835 1433.62 639.896 1434.71 638.951L1434.38 638.574ZM1690.03 182.615L1689.54 182.56C1671.02 350.705 1582.09 509.388 1434.05 638.197L1434.38 638.574L1434.71 638.951C1582.9 510.005 1671.98 351.104 1690.53 182.67L1690.03 182.615ZM953.489 955.503L953.221 955.081C953.192 955.1 953.161 955.119 953.13 955.139C953.099 955.158 953.067 955.178 953.035 955.198L953.303 955.621L953.57 956.043C953.6 956.024 953.63 956.005 953.661 955.986C953.692 955.966 953.725 955.946 953.757 955.926L953.489 955.503ZM1992.47 18.0031L1992.02 17.777C1987.87 25.9513 1957.37 87.1349 1924.24 153.739L1924.69 153.962L1925.13 154.185C1958.27 87.5776 1988.77 26.3991 1992.91 18.2293L1992.47 18.0031ZM1817.53 369.253L1817.09 369.03L1761.94 479.821L1762.38 480.044L1762.83 480.267L1817.98 369.476L1817.53 369.253ZM1019.59 825.449L1020.03 825.677C1028.02 810.029 1035.36 795.724 1040.7 785.329C1043.37 780.131 1045.53 775.91 1047.03 772.987C1047.78 771.526 1048.37 770.389 1048.76 769.616C1048.96 769.23 1049.11 768.934 1049.21 768.734C1049.26 768.634 1049.3 768.557 1049.32 768.504C1049.34 768.478 1049.35 768.455 1049.36 768.437C1049.36 768.429 1049.37 768.417 1049.37 768.404C1049.37 768.399 1049.38 768.383 1049.39 768.363C1049.39 768.35 1049.4 768.315 1049.4 768.291C1049.41 768.233 1049.35 767.97 1049.21 767.808L1048.91 768.206L1048.61 768.604C1048.47 768.443 1048.41 768.18 1048.42 768.122C1048.42 768.099 1048.43 768.064 1048.44 768.053C1048.44 768.034 1048.45 768.021 1048.45 768.019C1048.45 768.013 1048.45 768.01 1048.45 768.015C1048.45 768.023 1048.44 768.039 1048.43 768.063C1048.4 768.112 1048.37 768.185 1048.32 768.284C1048.22 768.482 1048.07 768.776 1047.87 769.162C1047.48 769.933 1046.89 771.07 1046.14 772.531C1044.64 775.453 1042.48 779.674 1039.81 784.872C1034.47 795.268 1027.13 809.573 1019.14 825.222L1019.59 825.449ZM1999.96 2.46423L1999.49 2.30934C1999.3 2.86261 1998.42 4.79324 1997.07 7.58912C1995.74 10.3642 1993.96 13.9489 1992.02 17.777L1992.47 18.0031L1992.91 18.2292C1994.85 14.3966 1996.63 10.8058 1997.97 8.02348C1999.31 5.26201 2000.23 3.25354 2000.44 2.61912L1999.96 2.46423ZM953.303 955.621L953.75 955.844C961.076 941.165 994.884 874.938 1020.03 825.677L1019.59 825.449L1019.14 825.222C993.995 874.48 960.184 940.713 952.855 955.397L953.303 955.621ZM1924.69 153.962L1924.24 153.739L1867.91 266.935L1868.36 267.158L1868.81 267.381L1925.13 154.185L1924.69 153.962ZM953.157 957.716L953.076 958.21C953.081 958.211 953.097 958.213 953.116 958.215C953.127 958.215 953.151 958.216 953.166 958.216C953.189 958.215 953.249 958.208 953.287 958.199C953.356 958.175 953.526 958.054 953.604 957.941C953.652 957.788 953.623 957.534 953.579 957.447C953.549 957.406 953.496 957.349 953.475 957.33C953.461 957.319 953.438 957.302 953.428 957.296C953.409 957.284 953.393 957.275 953.388 957.273C953.38 957.269 953.375 957.266 953.371 957.264C953.365 957.262 953.36 957.259 953.359 957.259C953.351 957.255 953.359 957.259 953.36 957.259C953.368 957.263 953.377 957.267 953.386 957.273C953.403 957.283 953.417 957.294 953.428 957.305C953.453 957.331 953.441 957.337 953.431 957.28C953.409 957.14 953.426 956.707 953.932 955.735L953.489 955.503L953.046 955.272C952.51 956.299 952.369 956.973 952.444 957.44C952.484 957.687 952.585 957.872 952.709 958C952.769 958.062 952.829 958.106 952.88 958.135C952.905 958.15 952.927 958.161 952.943 958.168C952.949 958.171 952.96 958.176 952.953 958.173C952.953 958.172 952.948 958.17 952.942 958.168C952.939 958.166 952.933 958.163 952.926 958.16C952.921 958.157 952.905 958.149 952.886 958.137C952.876 958.13 952.853 958.113 952.839 958.102C952.818 958.084 952.765 958.026 952.736 957.985C952.691 957.898 952.662 957.644 952.711 957.491C952.788 957.379 952.958 957.257 953.027 957.233C953.065 957.225 953.125 957.217 953.148 957.216C953.163 957.216 953.187 957.217 953.197 957.218C953.217 957.22 953.232 957.222 953.238 957.223L953.157 957.716ZM953.303 955.621L952.855 955.397C952.363 956.384 952.247 957.052 952.38 957.523C952.53 958.054 952.944 958.188 953.075 958.21L953.157 957.716L953.238 957.223C953.344 957.24 953.352 957.286 953.342 957.251C953.315 957.154 953.284 956.777 953.75 955.844L953.303 955.621ZM955.603 954.165L956.138 955.01L956.148 955.003L955.603 954.165ZM957.039 953.231L956.518 952.378L956.505 952.385L956.494 952.393L957.039 953.231ZM958.149 952.553L958.67 953.406L958.677 953.402L958.684 953.398L958.149 952.553ZM1089.33 870.054L1088.81 869.202V869.202L1089.33 870.054ZM1433.45 637.141L1434.1 637.895V637.895L1433.45 637.141ZM1688.92 178.426L1687.92 178.323V178.323L1688.92 178.426ZM1689.48 173.141L1688.49 173.033V173.033L1689.48 173.141ZM1691.05 160.003L1692.04 160.136V160.136L1691.05 160.003ZM1691.49 156.868L1690.51 156.721V156.721L1691.49 156.868ZM1691.87 154.512L1690.89 154.336L1690.89 154.336L1691.87 154.512ZM1692.2 152.947L1693.17 153.21V153.21L1692.2 152.947ZM1692.46 152.247L1693.35 152.704L1693.35 152.693L1693.36 152.682L1692.46 152.247ZM1692.46 152.244L1691.57 151.786L1691.57 151.798L1691.56 151.809L1692.46 152.244ZM1693.08 151.539L1692.53 150.7L1692.53 150.7L1693.08 151.539ZM1694.09 151.323L1694.26 150.338L1694.26 150.338L1694.09 151.323ZM1694.98 151.84L1695.73 151.185H1695.73L1694.98 151.84ZM1695.47 152.791L1694.52 153.091L1694.52 153.091L1695.47 152.791ZM1695.66 153.568L1694.69 153.77L1694.69 153.77L1695.66 153.568ZM1696.01 155.679L1695.01 155.813V155.813L1696.01 155.679ZM1696.75 162.603L1697.74 162.512V162.512L1696.75 162.603ZM1698.43 185.101L1699.43 185.037V185.037L1698.43 185.101ZM1701.2 242.71L1702.2 242.681V242.681L1701.2 242.71ZM1668.98 444.036L1669.92 444.361H1669.92L1668.98 444.036ZM1414.75 798.632L1415.4 799.39V799.39L1414.75 798.632ZM1178.54 967.374L1179.08 968.217V968.217L1178.54 967.374ZM961.256 1113.1L960.652 1112.3H960.652L961.256 1113.1ZM873.72 1191.56L874.483 1192.2V1192.2L873.72 1191.56ZM766 1356.1L765.107 1355.65L765.106 1355.65L766 1356.1ZM762.897 1362.28L762.003 1361.83L762.002 1361.84L762.897 1362.28ZM761.681 1364.75L760.783 1364.31H760.783L761.681 1364.75ZM759.08 1370.14L759.983 1370.57H759.983L759.08 1370.14ZM754.851 1379.17L753.943 1378.76H753.943L754.851 1379.17ZM745.845 1399.16L746.76 1399.56H746.76L745.845 1399.16ZM739.987 1412.62L739.068 1412.22H739.068L739.987 1412.62ZM737.256 1419.03L736.335 1418.64H736.335L737.256 1419.03ZM732.448 1430.61L733.374 1430.99H733.374L732.448 1430.61ZM730.472 1435.55L731.402 1435.92H731.402L730.472 1435.55ZM728.191 1441.54L727.251 1441.2L727.251 1441.2L728.191 1441.54ZM727.641 1443.09L726.695 1442.77L726.695 1442.77L727.641 1443.09ZM726.902 1445.4L727.866 1445.67H727.866L726.902 1445.4ZM726.739 1446.06L725.76 1445.85L725.703 1446.13L725.795 1446.39L726.739 1446.06ZM727.092 1446.97L728.017 1446.59H728.017L727.092 1446.97ZM728.593 1450.39L727.683 1450.8H727.683L728.593 1450.39ZM734.193 1462.27L735.094 1461.83H735.094L734.193 1462.27ZM752.643 1499.62L751.75 1500.07H751.75L752.643 1499.62ZM1005.58 1996.3L1004.69 1995.84V1995.84L1005.58 1996.3ZM1008.73 1990.23L1009.62 1990.68V1990.68L1008.73 1990.23ZM1019.64 1968.7L1018.75 1968.25V1968.25L1019.64 1968.7ZM896.136 1784.79L895.242 1785.24L895.242 1785.24L896.136 1784.79ZM1054.15 1899.62L1055.05 1900.06V1900.06L1054.15 1899.62ZM1136.45 1734.11L1135.55 1733.66L1135.55 1733.66L1136.45 1734.11ZM1164.35 1678.05L1163.46 1677.6L1163.46 1677.6L1164.35 1678.05ZM1219.61 1567.06L1220.51 1567.51L1220.51 1567.51L1219.61 1567.06ZM1265.27 1475.32L1266.17 1475.76L1266.17 1475.76L1265.27 1475.32ZM1408.6 1187.36L1409.49 1187.81L1408.6 1187.36ZM1542.08 919.147L1541.19 918.702H1541.19L1542.08 919.147ZM931.436 1854.94L930.543 1855.39L930.543 1855.39L931.436 1854.94ZM990.789 1972.13L989.901 1972.59V1972.59L990.789 1972.13ZM1595.21 812.396L1596.1 812.842V812.842L1595.21 812.396ZM1634.27 733.917L1635.17 734.362L1635.17 734.362L1634.27 733.917ZM1694.31 613.254L1695.2 613.699L1695.2 613.699L1694.31 613.254ZM1761.04 479.15L1760.14 478.705V478.705L1761.04 479.15ZM1816.19 368.358L1815.29 367.912V367.912L1816.19 368.358ZM1867.01 266.263L1867.91 266.708L1867.91 266.708L1867.01 266.263ZM1923.34 153.068L1924.24 153.514L1924.24 153.514L1923.34 153.068ZM1991.13 17.0973L1992.02 17.5496V17.5495L1991.13 17.0973ZM1996.43 6.39232L1995.53 5.95965L1995.53 5.95974L1996.43 6.39232ZM953.489 955.503L952.602 955.041L950.883 958.339L954.024 956.348L953.489 955.503ZM1997.56 3.99026L1998.47 4.41058L1999.11 3.02301L1997.58 2.99049L1997.56 3.99026ZM1994.27 3.9342L1994.28 2.93428V2.93428L1994.27 3.9342ZM1977.91 3.80279L1977.91 2.80281V2.80281L1977.91 3.80279ZM1060.3 751.395L1061.16 751.908L1061.19 751.852L1061.22 751.793L1060.3 751.395ZM1049.23 769.962L1049.45 770.936L1049.87 770.84L1050.09 770.474L1049.23 769.962ZM1088.65 696.688L1087.76 696.234V696.234L1088.65 696.688ZM1062.1 747.965L1061.22 747.496V747.496L1062.1 747.965ZM1061.08 749.601L1060.19 749.131L1060.17 749.167L1060.16 749.204L1061.08 749.601ZM1003.7 1995.97L1002.86 1996.51L1002.86 1996.51L1003.7 1995.97ZM1004.85 1997.66L1004.06 1998.26L1004.99 1999.49L1005.73 1998.13L1004.85 1997.66ZM1283.61 313.649L1284.5 314.102V314.102L1283.61 313.649ZM1720.13 3.70117L1720.12 2.70118V2.70118L1720.13 3.70117ZM1441.13 4.1532L1441.13 3.1532L1440.52 3.1542L1440.24 3.69959L1441.13 4.1532ZM1917.78 3.62934L1917.79 2.62934V2.62934L1917.78 3.62934ZM955.603 954.165L956.148 955.003L957.584 954.069L957.039 953.231L956.494 952.393L955.058 953.327L955.603 954.165ZM957.039 953.231L957.56 954.084L958.67 953.406L958.149 952.553L957.628 951.7L956.518 952.378L957.039 953.231ZM958.149 952.553L958.684 953.398C1029.32 908.649 1067.57 884.593 1089.86 870.907L1089.33 870.054L1088.81 869.202C1066.51 882.898 1028.25 906.961 957.614 951.708L958.149 952.553ZM1089.33 870.054L1089.86 870.907C1303.85 739.475 1364.71 698.278 1434.1 637.895L1433.45 637.141L1432.79 636.387C1363.54 696.645 1302.81 737.762 1088.81 869.202L1089.33 870.054ZM1433.45 637.141L1434.1 637.895C1583.3 508.077 1672.39 347.979 1689.91 178.529L1688.92 178.426L1687.92 178.323C1670.46 347.189 1581.67 506.845 1432.79 636.387L1433.45 637.141ZM1688.92 178.426L1689.91 178.529C1690.1 176.717 1690.29 174.952 1690.47 173.25L1689.48 173.141L1688.49 173.033C1688.3 174.738 1688.11 176.507 1687.92 178.323L1688.92 178.426ZM1689.48 173.141L1690.47 173.25C1691.03 168.145 1691.58 163.616 1692.04 160.136L1691.05 160.003L1690.06 159.87C1689.59 163.371 1689.05 167.917 1688.49 173.033L1689.48 173.141ZM1691.05 160.003L1692.04 160.136C1692.2 158.978 1692.35 157.932 1692.48 157.016L1691.49 156.868L1690.51 156.721C1690.37 157.648 1690.22 158.705 1690.06 159.87L1691.05 160.003ZM1691.49 156.868L1692.48 157.016C1692.62 156.099 1692.75 155.317 1692.86 154.688L1691.87 154.512L1690.89 154.336C1690.77 154.992 1690.64 155.794 1690.51 156.721L1691.49 156.868ZM1691.87 154.512L1692.86 154.688C1692.97 154.063 1693.07 153.556 1693.17 153.21L1692.2 152.947L1691.24 152.685C1691.12 153.121 1691 153.701 1690.89 154.336L1691.87 154.512ZM1692.2 152.947L1693.17 153.21C1693.21 153.05 1693.27 152.859 1693.35 152.704L1692.46 152.247L1691.57 151.789C1691.39 152.146 1691.28 152.515 1691.24 152.685L1692.2 152.947ZM1692.46 152.247L1693.36 152.682L1693.36 152.679L1692.46 152.244L1691.56 151.809L1691.56 151.812L1692.46 152.247ZM1692.46 152.244L1693.35 152.702C1693.36 152.674 1693.39 152.62 1693.44 152.554C1693.49 152.485 1693.55 152.422 1693.62 152.377L1693.08 151.539L1692.53 150.7C1691.92 151.1 1691.63 151.672 1691.57 151.786L1692.46 152.244ZM1693.08 151.539L1693.62 152.378C1693.71 152.321 1693.81 152.29 1693.92 152.309L1694.09 151.323L1694.26 150.338C1693.52 150.21 1692.92 150.452 1692.53 150.7L1693.08 151.539ZM1694.09 151.323L1693.92 152.309C1694.03 152.328 1694.14 152.4 1694.22 152.495L1694.98 151.84L1695.73 151.185C1695.46 150.872 1694.98 150.462 1694.26 150.338L1694.09 151.323ZM1694.98 151.84L1694.22 152.495C1694.29 152.578 1694.36 152.686 1694.41 152.805C1694.46 152.921 1694.49 153.021 1694.52 153.091L1695.47 152.791L1696.42 152.492C1696.38 152.339 1696.19 151.713 1695.73 151.185L1694.98 151.84ZM1695.47 152.791L1694.52 153.091C1694.58 153.283 1694.63 153.514 1694.69 153.77L1695.66 153.568L1696.64 153.365C1696.58 153.079 1696.51 152.774 1696.42 152.492L1695.47 152.791ZM1695.66 153.568L1694.69 153.77C1694.79 154.285 1694.9 154.975 1695.01 155.813L1696.01 155.679L1697 155.545C1696.88 154.69 1696.76 153.947 1696.64 153.365L1695.66 153.568ZM1696.01 155.679L1695.01 155.813C1695.24 157.493 1695.49 159.835 1695.75 162.694L1696.75 162.603L1697.74 162.512C1697.48 159.642 1697.23 157.268 1697 155.545L1696.01 155.679ZM1696.75 162.603L1695.75 162.694C1696.28 168.418 1696.86 176.266 1697.43 185.165L1698.43 185.101L1699.43 185.037C1698.86 176.129 1698.27 168.261 1697.74 162.512L1696.75 162.603ZM1698.43 185.101L1697.43 185.165C1698.58 202.965 1699.68 225.005 1700.2 242.739L1701.2 242.71L1702.2 242.681C1701.68 224.919 1700.57 202.855 1699.43 185.037L1698.43 185.101ZM1701.2 242.71L1700.2 242.739C1702.27 313.745 1693.13 370.783 1668.03 443.71L1668.98 444.036L1669.92 444.361C1695.09 371.226 1704.27 313.948 1702.2 242.681L1701.2 242.71ZM1668.98 444.036L1668.03 443.71C1622.7 575.426 1542.19 687.672 1414.09 797.874L1414.75 798.632L1415.4 799.39C1543.7 689.006 1624.45 576.477 1669.92 444.361L1668.98 444.036ZM1414.75 798.632L1414.09 797.874C1354.33 849.29 1290.73 894.72 1178.01 966.53L1178.54 967.374L1179.08 968.217C1291.84 896.386 1355.53 850.897 1415.4 799.39L1414.75 798.632ZM1178.54 967.374L1178.01 966.53C1059.91 1041.76 1005.95 1077.95 960.652 1112.3L961.256 1113.1L961.86 1113.9C1007.08 1079.6 1060.98 1043.45 1179.08 968.217L1178.54 967.374ZM961.256 1113.1L960.652 1112.3C910.019 1150.71 897.484 1161.95 872.957 1190.91L873.72 1191.56L874.483 1192.2C898.874 1163.4 911.278 1152.26 961.86 1113.9L961.256 1113.1ZM873.72 1191.56L872.957 1190.91C831.243 1240.17 797.249 1292.07 765.107 1355.65L766 1356.1L766.892 1356.55C798.97 1293.1 832.88 1241.33 874.483 1192.2L873.72 1191.56ZM766 1356.1L765.106 1355.65L762.003 1361.83L762.897 1362.28L763.791 1362.73L766.894 1356.55L766 1356.1ZM762.897 1362.28L762.002 1361.84C761.606 1362.63 761.199 1363.46 760.783 1364.31L761.681 1364.75L762.579 1365.19C762.994 1364.34 763.398 1363.52 763.792 1362.73L762.897 1362.28ZM761.681 1364.75L760.783 1364.31C759.95 1366.01 759.079 1367.82 758.177 1369.71L759.08 1370.14L759.983 1370.57C760.882 1368.68 761.75 1366.88 762.579 1365.19L761.681 1364.75ZM759.08 1370.14L758.177 1369.71C756.825 1372.55 755.404 1375.59 753.943 1378.76L754.851 1379.17L755.759 1379.59C757.217 1376.43 758.635 1373.41 759.983 1370.57L759.08 1370.14ZM754.851 1379.17L753.943 1378.76C751.022 1385.08 747.941 1391.93 744.93 1398.75L745.845 1399.16L746.76 1399.56C749.767 1392.74 752.844 1385.91 755.759 1379.59L754.851 1379.17ZM745.845 1399.16L744.93 1398.75C742.923 1403.3 740.947 1407.84 739.068 1412.22L739.987 1412.62L740.906 1413.01C742.782 1408.64 744.756 1404.1 746.76 1399.56L745.845 1399.16ZM739.987 1412.62L739.068 1412.22C738.13 1414.41 737.215 1416.55 736.335 1418.64L737.256 1419.03L738.177 1419.42C739.056 1417.34 739.969 1415.19 740.906 1413.01L739.987 1412.62ZM737.256 1419.03L736.335 1418.64C734.574 1422.8 732.947 1426.72 731.521 1430.24L732.448 1430.61L733.374 1430.99C734.796 1427.49 736.42 1423.58 738.177 1419.42L737.256 1419.03ZM732.448 1430.61L731.521 1430.24C730.808 1431.99 730.146 1433.65 729.541 1435.19L730.472 1435.55L731.402 1435.92C732.004 1434.39 732.664 1432.74 733.374 1430.99L732.448 1430.61ZM730.472 1435.55L729.541 1435.19C728.635 1437.49 727.862 1439.51 727.251 1441.2L728.191 1441.54L729.131 1441.88C729.733 1440.22 730.499 1438.21 731.402 1435.92L730.472 1435.55ZM728.191 1441.54L727.251 1441.2C727.047 1441.76 726.862 1442.28 726.695 1442.77L727.641 1443.09L728.586 1443.42C728.749 1442.95 728.931 1442.43 729.131 1441.88L728.191 1441.54ZM727.641 1443.09L726.695 1442.77C726.362 1443.73 726.108 1444.53 725.939 1445.13L726.902 1445.4L727.866 1445.67C728.019 1445.12 728.259 1444.37 728.586 1443.42L727.641 1443.09ZM726.902 1445.4L725.939 1445.13C725.844 1445.47 725.791 1445.71 725.76 1445.85L726.739 1446.06L727.717 1446.26C727.739 1446.16 727.782 1445.97 727.866 1445.67L726.902 1445.4ZM726.739 1446.06L725.795 1446.39C725.876 1446.62 726 1446.94 726.167 1447.35L727.092 1446.97L728.017 1446.59C727.855 1446.19 727.746 1445.91 727.682 1445.73L726.739 1446.06ZM727.092 1446.97L726.167 1447.35C726.51 1448.18 727.02 1449.34 727.683 1450.8L728.593 1450.39L729.504 1449.98C728.845 1448.53 728.347 1447.39 728.017 1446.59L727.092 1446.97ZM728.593 1450.39L727.683 1450.8C729.006 1453.72 730.924 1457.78 733.292 1462.7L734.193 1462.27L735.094 1461.83C732.728 1456.92 730.818 1452.87 729.504 1449.98L728.593 1450.39ZM734.193 1462.27L733.292 1462.7C738.028 1472.54 744.562 1485.79 751.75 1500.07L752.643 1499.62L753.536 1499.17C746.352 1484.9 739.824 1471.66 735.094 1461.83L734.193 1462.27ZM1005.58 1996.3L1006.46 1996.77C1007.22 1995.33 1008.28 1993.28 1009.62 1990.68L1008.73 1990.23L1007.84 1989.77C1006.51 1992.36 1005.45 1994.41 1004.69 1995.84L1005.58 1996.3ZM1008.73 1990.23L1009.62 1990.68C1012.28 1985.5 1016.01 1978.14 1020.53 1969.15L1019.64 1968.7L1018.75 1968.25C1014.22 1977.24 1010.49 1984.59 1007.84 1989.77L1008.73 1990.23ZM752.643 1499.62L751.75 1500.07C778.752 1553.7 838.508 1672.46 895.242 1785.24L896.136 1784.79L897.029 1784.34C840.295 1671.56 780.538 1552.8 753.536 1499.17L752.643 1499.62ZM1019.64 1968.7L1020.53 1969.15C1029.59 1951.18 1041.82 1926.71 1055.05 1900.06L1054.15 1899.62L1053.26 1899.17C1040.03 1925.81 1027.8 1950.29 1018.75 1968.25L1019.64 1968.7ZM1054.15 1899.62L1055.05 1900.06C1074.89 1860.1 1107.75 1794.02 1137.34 1734.55L1136.45 1734.11L1135.55 1733.66C1105.96 1793.13 1073.1 1859.21 1053.26 1899.17L1054.15 1899.62ZM1136.45 1734.11L1137.34 1734.55L1165.25 1678.49L1164.35 1678.05L1163.46 1677.6L1135.55 1733.66L1136.45 1734.11ZM1164.35 1678.05L1165.25 1678.49C1182.32 1644.2 1202.22 1604.25 1220.51 1567.51L1219.61 1567.06L1218.72 1566.61C1200.43 1603.36 1180.53 1643.31 1163.46 1677.6L1164.35 1678.05ZM1219.61 1567.06L1220.51 1567.51L1266.17 1475.76L1265.27 1475.32L1264.38 1474.87L1218.72 1566.61L1219.61 1567.06ZM1265.27 1475.32L1266.17 1475.76C1287.52 1432.84 1352.02 1303.26 1409.49 1187.81L1408.6 1187.36L1407.7 1186.92C1350.23 1302.37 1285.73 1431.95 1264.38 1474.87L1265.27 1475.32ZM1408.6 1187.36L1409.49 1187.81C1466.96 1072.36 1527.04 951.661 1542.98 919.592L1542.08 919.147L1541.19 918.702C1525.25 950.77 1465.17 1071.47 1407.7 1186.92L1408.6 1187.36ZM931.436 1854.94L930.543 1855.39C961.353 1916.59 979.31 1952.12 989.901 1972.59L990.789 1972.13L991.678 1971.67C981.092 1951.22 963.141 1915.7 932.329 1854.49L931.436 1854.94ZM1542.08 919.147L1542.98 919.592C1558.93 887.522 1582.83 839.485 1596.1 812.842L1595.21 812.396L1594.31 811.95C1581.04 838.594 1557.14 886.632 1541.19 918.702L1542.08 919.147ZM1595.21 812.396L1596.1 812.842C1602.74 799.521 1617.2 770.457 1635.17 734.362L1634.27 733.917L1633.38 733.471C1615.41 769.566 1600.95 798.629 1594.31 811.95L1595.21 812.396ZM1634.27 733.917L1635.17 734.362L1695.2 613.699L1694.31 613.254L1693.41 612.808L1633.38 733.471L1634.27 733.917ZM1694.31 613.254L1695.2 613.699C1715.82 572.256 1739.84 523.983 1761.93 479.596L1761.04 479.15L1760.14 478.705C1738.05 523.092 1714.03 571.365 1693.41 612.808L1694.31 613.254ZM1761.04 479.15L1761.93 479.596L1817.08 368.804L1816.19 368.358L1815.29 367.912L1760.14 478.705L1761.04 479.15ZM1816.19 368.358L1817.08 368.804C1829.98 342.902 1848.49 305.729 1867.91 266.708L1867.01 266.263L1866.12 265.817C1846.7 304.838 1828.19 342.01 1815.29 367.912L1816.19 368.358ZM1867.01 266.263L1867.91 266.708L1924.24 153.514L1923.34 153.068L1922.44 152.623L1866.12 265.817L1867.01 266.263ZM1923.34 153.068L1924.24 153.514C1957.37 86.9114 1987.87 25.7271 1992.02 17.5496L1991.13 17.0973L1990.23 16.645C1986.08 24.8315 1955.57 86.0259 1922.44 152.623L1923.34 153.068ZM1991.13 17.0973L1992.02 17.5495C1994.09 13.4684 1995.97 9.66353 1997.33 6.82489L1996.43 6.39232L1995.53 5.95974C1994.17 8.78234 1992.3 12.5738 1990.23 16.6451L1991.13 17.0973ZM1996.43 6.39232L1997.33 6.82498C1997.77 5.90862 1998.15 5.0957 1998.47 4.41058L1997.56 3.99026L1996.65 3.56994C1996.34 4.24794 1995.96 5.05255 1995.53 5.95965L1996.43 6.39232ZM1997.56 3.99026L1997.58 2.99049C1996.71 2.97202 1995.61 2.95167 1994.28 2.93428L1994.27 3.9342L1994.26 4.93411C1995.58 4.95142 1996.68 4.97167 1997.54 4.99004L1997.56 3.99026ZM1994.27 3.9342L1994.28 2.93428C1990.54 2.88529 1985.02 2.84198 1977.91 2.80281L1977.91 3.80279L1977.9 4.80278C1985.01 4.84194 1990.52 4.88522 1994.26 4.93411L1994.27 3.9342ZM1060.3 751.395L1059.44 750.883L1048.37 769.45L1049.23 769.962L1050.09 770.474L1061.16 751.908L1060.3 751.395ZM1088.65 696.688L1087.76 696.234C1077.59 716.219 1068.18 734.363 1061.22 747.496L1062.1 747.965L1062.98 748.433C1069.95 735.288 1079.37 717.133 1089.54 697.141L1088.65 696.688ZM1062.1 747.965L1061.22 747.496C1061.02 747.86 1060.9 748.029 1060.77 748.213C1060.61 748.432 1060.44 748.673 1060.19 749.131L1061.08 749.601L1061.96 750.071C1062.14 749.731 1062.25 749.574 1062.39 749.384C1062.55 749.16 1062.73 748.909 1062.98 748.433L1062.1 747.965ZM1003.7 1995.97L1002.86 1996.51C1003.35 1997.28 1003.74 1997.85 1004.06 1998.26L1004.85 1997.66L1005.64 1997.05C1005.38 1996.7 1005.02 1996.18 1004.55 1995.44L1003.7 1995.97ZM1061.08 749.601L1060.16 749.204L1059.38 750.998L1060.3 751.395L1061.22 751.793L1061.99 749.998L1061.08 749.601ZM953.489 955.503L954.024 956.348C954.733 955.899 955.435 955.455 956.138 955.01L955.603 954.165L955.068 953.32C954.369 953.763 953.66 954.211 952.954 954.659L953.489 955.503ZM1283.61 313.649L1282.71 313.195C1195.82 483.903 1108.09 656.27 1087.76 696.234L1088.65 696.688L1089.54 697.141C1109.88 657.178 1197.61 484.81 1284.5 314.102L1283.61 313.649ZM1720.13 3.70117L1720.12 2.70118L1441.13 3.1532L1441.13 4.1532L1441.14 5.1532L1720.13 4.70117L1720.13 3.70117ZM1004.85 1997.66L1005.73 1998.13C1005.92 1997.78 1006.17 1997.32 1006.46 1996.77L1005.58 1996.3L1004.69 1995.84C1004.41 1996.37 1004.17 1996.82 1003.97 1997.18L1004.85 1997.66ZM1441.13 4.1532L1440.24 3.69959L1282.71 313.195L1283.61 313.649L1284.5 314.102L1442.03 4.60681L1441.13 4.1532ZM990.789 1972.13L989.901 1972.59C996.967 1986.24 1000.74 1993.15 1002.86 1996.51L1003.7 1995.97L1004.55 1995.44C1002.49 1992.17 998.754 1985.34 991.678 1971.67L990.789 1972.13ZM1049.23 769.962L1049 768.988C1048.71 769.104 1048.44 769.345 1048.41 769.389C1048.39 769.407 1048.38 769.436 1048.37 769.448C1048.36 769.469 1048.34 769.489 1048.34 769.501C1048.32 769.529 1048.3 769.566 1048.28 769.606C1048.24 769.688 1048.17 769.808 1048.09 769.962C1047.93 770.271 1047.69 770.727 1047.38 771.322C1046.76 772.51 1045.86 774.256 1044.71 776.484C1042.4 780.941 1039.1 787.333 1035.11 795.079C1027.12 810.57 1016.35 831.476 1005.18 853.142C982.855 896.477 958.958 942.851 952.602 955.041L953.489 955.503L954.376 955.966C960.735 943.77 984.635 897.389 1006.96 854.058C1018.13 832.392 1028.9 811.486 1036.88 795.996C1040.88 788.25 1044.18 781.859 1046.48 777.403C1047.63 775.175 1048.54 773.431 1049.16 772.245C1049.46 771.651 1049.7 771.198 1049.86 770.894C1049.94 770.741 1050 770.628 1050.04 770.554C1050.06 770.517 1050.07 770.494 1050.08 770.483C1050.08 770.475 1050.08 770.48 1050.07 770.491C1050.07 770.498 1050.05 770.523 1050.04 770.539C1050.01 770.58 1049.74 770.82 1049.45 770.936L1049.23 769.962ZM1917.78 3.62934L1917.79 2.62934C1867.06 2.5578 1797.09 2.57649 1720.12 2.70118L1720.13 3.70117L1720.13 4.70117C1797.09 4.57649 1867.06 4.55781 1917.78 4.62934L1917.78 3.62934ZM896.136 1784.79L895.242 1785.24L930.543 1855.39L931.436 1854.94L932.329 1854.49L897.029 1784.34L896.136 1784.79ZM1977.91 3.80279L1977.91 2.80281C1963.7 2.72446 1943.15 2.66511 1917.79 2.62934L1917.78 3.62934L1917.78 4.62934C1943.14 4.66511 1963.7 4.72445 1977.9 4.80278L1977.91 3.80279Z" fill="#084281" mask="url(#path-2-inside-1_7_9)"/>
</g>
<path fill-rule="evenodd" clip-rule="evenodd" d="M0.0178662 2.58169C-0.460395 4.02235 8.71972 24.0624 20.771 47.8826C32.6561 71.3781 51.6949 109.171 63.0784 131.866C74.462 154.561 96.83 198.965 112.786 230.541C140.731 285.844 175.004 353.874 258.757 520.287C280.359 563.211 311.08 624.165 327.023 655.742C342.967 687.318 365.338 731.721 376.735 754.417C394.596 789.978 419.887 840.189 467.555 934.723C473.774 947.058 499.996 999.131 525.828 1050.44C551.659 1101.75 582.395 1162.71 594.133 1185.9C605.87 1209.09 618.853 1234.92 622.985 1243.31C627.117 1251.69 632.316 1261.9 634.538 1265.99L638.58 1273.43L652.423 1252.54C693.83 1190.04 740.186 1134.33 795.2 1080.93C807.329 1069.16 807.822 1067.05 801.512 1054.04C797.502 1045.78 766.122 982.638 731.065 912.297C717.787 885.655 693.661 837.214 677.453 804.651C607.968 665.058 531.411 511.369 445.094 338.187C412.793 273.381 360.856 169 308.201 63.066C293.807 34.1075 282.029 9.82625 282.029 9.10861C282.029 8.38918 280.411 6.04612 278.436 3.90038L274.841 0H137.858C20.0877 0 0.755444 0.362399 0.0178662 2.58169Z" fill="#12B85D"/>
<defs>
<filter id="filter0_d_7_9" x="373.329" y="0" width="682.824" height="1009.78" filterUnits="userSpaceOnUse" color-interpolation-filters="sRGB">
<feFlood flood-opacity="0" result="BackgroundImageFix"/>
<feColorMatrix in="SourceAlpha" type="matrix" values="0 0 0 0 0 0 0 0 0 0 0 0 0 0 0 0 0 0 127 0" result="hardAlpha"/>
<feOffset dy="4"/>
<feGaussianBlur stdDeviation="2"/>
<feComposite in2="hardAlpha" operator="out"/>
<feColorMatrix type="matrix" values="0 0 0 0 0 0 0 0 0 0 0 0 0 0 0 0 0 0 0.25 0"/>
<feBlend mode="normal" in2="BackgroundImageFix" result="effect1_dropShadow_7_9"/>
<feBlend mode="normal" in="SourceGraphic" in2="effect1_dropShadow_7_9" result="shape"/>
</filter>
<filter id="filter1_d_7_9" x="722.739" y="3.58774" width="1278.82" height="2002.07" filterUnits="userSpaceOnUse" color-interpolation-filters="sRGB">
<feFlood flood-opacity="0" result="BackgroundImageFix"/>
<feColorMatrix in="SourceAlpha" type="matrix" values="0 0 0 0 0 0 0 0 0 0 0 0 0 0 0 0 0 0 127 0" result="hardAlpha"/>
<feOffset dy="4"/>
<feGaussianBlur stdDeviation="2"/>
<feComposite in2="hardAlpha" operator="out"/>
<feColorMatrix type="matrix" values="0 0 0 0 0 0 0 0 0 0 0 0 0 0 0 0 0 0 0.25 0"/>
<feBlend mode="normal" in2="BackgroundImageFix" result="effect1_dropShadow_7_9"/>
<feBlend mode="normal" in="SourceGraphic" in2="effect1_dropShadow_7_9" result="shape"/>
</filter>
</defs>
</svg>
